<?xml version="1.0" encoding="UTF-8" standalone="no"?>
<!DOCTYPE svg PUBLIC "-//W3C//DTD SVG 1.1//EN" "http://www.w3.org/Graphics/SVG/1.1/DTD/svg11.dtd">
<svg width="100%" height="100%" viewBox="0 0 720 220" version="1.1" xmlns="http://www.w3.org/2000/svg" xmlns:xlink="http://www.w3.org/1999/xlink" xml:space="preserve" xmlns:affinity="https://www.affinity.studio/" style="fill-rule:evenodd;clip-rule:evenodd;stroke-linejoin:round;stroke-miterlimit:2;">
    <g transform="matrix(1,0,0,1,114.146532,35.457867)">
        <g transform="matrix(1,0,0,1,112.931674,72.316059)">
            <text x="0px" y="0px" style="font-family:'Arial-BoldMT', 'Arial', sans-serif;font-weight:700;font-size:72px;fill:rgb(225,245,252);">A<tspan x="46.236px 84.457px 122.677px 136.921px 151.165px " y="0px 0px 0px 0px 0px ">pollo</tspan></text>
        </g>
        <g transform="matrix(1,0,0,1,-127.068326,-17.683941)">
            <path d="M451.38,38.461L466.589,104.203L454.569,104.203L439.36,38.461L451.38,38.461Z" style="fill:rgb(255,127,80);"/>
        </g>
        <g transform="matrix(1,0,0,1,-113.453346,-17.683941)">
            <path d="M451.38,38.461L466.589,104.203L454.569,104.203L439.36,38.461L451.38,38.461Z" style="fill:rgb(255,209,102);"/>
        </g>
        <g transform="matrix(1,0,0,1,-99.838366,-17.683941)">
            <path d="M451.38,38.461L466.589,104.203L454.569,104.203L439.36,38.461L451.38,38.461Z" style="fill:rgb(6,214,160);"/>
        </g>
        <g transform="matrix(1,0,0,1,-86.223385,-17.683941)">
            <path d="M451.38,38.461L466.589,104.203L454.569,104.203L439.36,38.461L451.38,38.461Z" style="fill:rgb(17,138,178);"/>
        </g>
    </g>
    <g transform="matrix(1,0,0,1,360.79541,159.977051)">
        <text x="-136.415px" y="0px" style="font-family:'ArialMT', 'Arial', sans-serif;font-size:18px;fill:rgb(156,163,175);">Audiophile quality<tspan x="3.349px 8.35px " y="0px 0px ">, </tspan>terminal speed.</text>
    </g>
</svg>
